<svg width="327" height="232" viewBox="0 0 327 232" fill="none" xmlns="http://www.w3.org/2000/svg">
<path opacity="0.18" d="M4.60481 174.352C-3.62751 151.931 -0.60527 127.063 11.8976 106.95C17.1537 98.4696 24.545 91.7828 30.123 83.599C40.714 68.0229 42.166 47.9559 53.4928 32.7755C63.1772 19.8107 78.7023 12.6689 94.0894 7.76924C119.785 -0.421096 148.864 -3.40839 174.902 5.13145C185.709 8.67927 197.851 14.6209 205.781 22.9365C214.802 32.36 218.921 44.8565 231.207 51.2202C244.939 58.3224 256.384 51.4642 270.01 52.7699C280.2 53.7459 291.869 63.5189 297.867 71.7356C307.959 85.584 307.834 104.049 311.08 120.878C314.496 138.59 321.999 155.307 325.396 173.02C328.116 187.178 327.801 202.537 321.119 215.587C314.148 229.205 302.033 228.684 287.887 230.253C255.996 233.788 223.75 231.526 192.03 227.457C153.549 222.518 115.416 214.888 76.7313 211.565C47.0607 208.98 16.5689 206.955 4.60481 174.352Z" fill="#FFE185"/>
<path d="M37.7649 195.717H313.315C313.315 195.717 295.93 215.956 270.208 214.63C244.486 213.305 70.8256 205.358 70.8256 205.358C70.8256 205.358 42.9815 205.958 37.7649 195.717Z" fill="url(#paint0_linear)"/>
<path d="M288.374 102.491L105.982 10.5314L99.5435 198.401L202.871 165.93L288.374 102.491Z" fill="url(#paint1_linear)"/>
<path d="M125.035 141.148C124.983 141.649 124.799 142.124 124.49 142.526C123.8 143.245 122.894 143.707 121.908 143.845C116.231 145.164 110.377 145.533 104.55 145.903C103.459 146.021 102.349 145.995 101.265 145.83C100.069 145.527 98.9324 145.039 97.8878 144.379C91.633 140.825 85.6148 136.123 82.816 129.496C82.5137 128.797 82.2641 128.084 81.9487 127.392C81.7845 127.016 81.6005 126.653 81.3837 126.304C81.0355 125.75 80.1485 124.833 80.6084 124.167C81.0683 123.501 82.4349 123.93 82.9802 124.002C84.8001 124.26 86.5609 124.82 88.1969 125.664C92.7237 128.012 95.9036 132.318 100.023 135.365C100.312 135.602 100.641 135.8 100.989 135.938C101.442 136.07 101.909 136.13 102.382 136.097C107.966 136.031 113.479 134.956 119.03 134.369C120.449 134.211 122.02 134.138 123.156 135.028C124.293 135.919 124.615 137.429 124.865 138.833C125.035 139.592 125.094 140.37 125.035 141.148Z" fill="white"/>
<path d="M125.035 141.148C124.983 141.649 124.799 142.124 124.49 142.526C123.8 143.245 122.894 143.707 121.908 143.845C116.231 145.164 110.378 145.533 104.55 145.903C103.459 146.021 102.349 145.995 101.265 145.83C100.069 145.527 98.9324 145.039 97.8878 144.379C91.633 140.825 85.6148 136.123 82.816 129.496C82.5138 128.797 82.2641 128.084 81.9487 127.392C82.4349 127.412 82.9145 127.471 83.3941 127.563C85.2141 127.821 86.9748 128.381 88.6042 129.225C93.1442 131.573 96.3175 135.886 100.43 138.932C101.081 139.499 101.948 139.763 102.802 139.658C108.38 139.592 113.893 138.517 119.444 137.923C120.863 137.778 122.44 137.699 123.57 138.583C124.332 139.249 124.851 140.152 125.035 141.148Z" fill="url(#paint2_linear)"/>
<path d="M123.097 148.481C125.876 148.415 128.951 148.481 131.014 150.314C133.235 152.293 133.471 155.669 133.557 158.656L134.457 191.629C134.503 193.468 134.457 195.539 133.143 196.818C131.829 198.098 130.002 198.071 128.288 198.058C121.947 198.005 115.515 197.946 109.412 196.192C106.251 195.203 103.164 193.996 100.174 192.565L92.4148 189.09C91.7907 188.866 91.2322 188.496 90.7789 188.015C90.4372 187.514 90.2139 186.947 90.1219 186.353C88.0917 176.824 88.1377 166.965 90.273 157.463C90.5621 155.906 91.0745 154.403 91.7907 152.992C94.5501 148 99.2543 149.035 104.162 148.949L123.097 148.481Z" fill="#FFE185"/>
<path d="M114.681 151.607C117.46 151.541 120.535 151.607 122.598 153.447C124.819 155.425 125.055 158.795 125.14 161.789L126.034 194.761C126.087 196.601 125.62 195.295 124.3 196.574C122.979 197.854 94.7867 197.056 91.7644 195.704L83.9986 192.222C83.3941 192.004 82.8422 191.642 82.402 191.174C82.0604 190.679 81.837 190.112 81.745 189.518C79.7083 179.989 79.7609 170.137 81.8896 160.628C82.1852 159.072 82.6977 157.562 83.4138 156.15C86.1733 151.165 90.8709 152.227 95.7853 152.108L114.681 151.607Z" fill="url(#paint3_linear)"/>
<path d="M62.6916 123.415C60.9177 122.756 59.0518 122.393 57.1662 122.334C51.9364 121.965 46.6869 122.103 41.4899 122.763C39.6897 122.987 37.8304 123.303 36.3258 124.326C33.6584 126.146 32.824 129.654 32.3378 132.852C30.7741 143.225 30.7873 153.77 32.3772 164.136C33.2905 170.012 32.5086 176.006 32.4495 181.941C32.4035 186.558 31.9042 193.904 35.498 196.726C37.3311 198.17 62.2251 198.744 71.9949 198.962C85.4176 199.258 98.8403 199.562 112.263 199.621C115.022 199.621 117.821 199.621 120.482 198.889C121.172 198.744 121.809 198.428 122.341 197.973C123.472 196.871 123.274 195.031 122.998 193.482C122.361 190.204 121.625 186.947 120.778 183.715C120.121 181.19 120.541 178.519 120.508 175.907C120.508 173.639 120.443 171.291 119.497 169.234C118.36 166.741 116.014 164.974 113.498 163.919C110.982 162.864 108.242 162.415 105.568 161.888C97.4211 160.285 88.972 157.542 83.7159 151.106C80.7199 147.419 79.0643 142.856 77.0341 138.576C75.004 134.296 72.3759 130.003 68.2236 127.689C66.2197 126.548 64.7678 124.306 62.6916 123.415Z" fill="#FFE185"/>
<path d="M41.1221 131.573L43.172 146.74C43.4085 148.494 43.7305 150.413 45.0576 151.587C46.3848 152.761 48.4281 152.827 50.2546 152.8L86.0353 152.253L75.0567 135.49C73.8543 133.531 72.4746 131.678 70.9372 129.97C67.1397 126.014 61.7391 123.877 56.3122 123.099C52.0088 122.578 47.6594 122.545 43.3494 122.987C41.0827 123.171 40.1366 122.855 40.3534 125.328C40.5374 127.399 40.8396 129.489 41.1221 131.573Z" fill="url(#paint4_linear)"/>
<path d="M63.8677 132.773C63.9597 134.178 64.183 135.576 64.5247 136.941C65.116 139.104 65.8584 141.227 66.7519 143.285L72.4351 157.232C72.6585 157.865 72.9804 158.465 73.3877 158.999C74.0382 159.692 74.8792 160.18 75.799 160.41C77.4349 160.859 79.1169 161.103 80.8119 161.149C86.4885 161.499 92.1913 161.327 97.8351 160.635C99.0439 160.483 100.542 160.028 100.706 158.815C100.732 158.419 100.673 158.023 100.529 157.654C98.2293 150.222 93.0323 143.911 91.0022 136.4C90.6408 135.081 90.3846 133.716 89.9838 132.404C89.3531 130.445 88.4727 128.579 87.3558 126.851C86.9287 126.132 86.4162 125.466 85.8249 124.873C85.0299 124.18 84.1167 123.64 83.1246 123.29C79.5111 121.905 76.0618 120.969 72.1986 121.134C71.0685 121.187 69.3734 122.294 68.3288 122.71C66.2723 123.528 64.932 125.618 64.4393 127.781C63.9465 129.944 64.1502 132.193 64.3604 134.375" fill="white"/>
<path d="M88.0522 152.926C87.8486 151.943 87.8748 150.947 87.6515 149.945C87.0864 147.505 84.9774 145.665 82.6779 144.669C80.3784 143.674 77.8489 143.416 75.3851 142.994C74.1631 142.783 72.8753 142.506 71.9752 141.676C70.6086 140.357 70.5758 138.26 70.3524 136.4C70.1093 134.382 69.5377 132.424 68.6705 130.59C68.5982 130.392 68.4602 130.221 68.2828 130.109C67.9872 130.023 67.6718 130.096 67.4419 130.3C65.6482 131.533 64.8664 133.868 64.9387 136.05C65.0109 138.233 65.7993 140.317 66.5878 142.355L71.0028 153.836C71.5416 155.24 72.1198 156.704 73.2695 157.667C74.8332 158.986 77.0473 159.059 79.0841 158.986C82.8224 158.854 87.9865 158.946 91.403 157.357C89.859 156.131 88.4859 154.95 88.0522 152.926Z" fill="url(#paint5_linear)"/>
<path d="M78.8476 133.142C79.0381 132.793 79.452 132.628 79.8331 132.747C79.9776 132.206 79.6557 131.514 80.0631 131.131C80.3324 130.874 80.7923 130.933 81.088 130.702C81.3836 130.472 81.4165 130.043 81.5807 129.68C81.9355 129.001 82.7699 128.737 83.4532 129.093C83.4598 129.1 83.4729 129.107 83.4795 129.107C83.4335 128.77 83.4269 128.355 83.716 128.17C84.0051 127.985 84.4125 128.17 84.7278 128.051C85.2534 127.814 85.03 126.95 85.3848 126.515C85.4899 126.403 85.6279 126.31 85.7725 126.258C86.9354 125.79 88.2559 126.35 88.7224 127.517C88.7947 127.695 88.8407 127.88 88.867 128.071C89.3991 127.662 90.1613 127.768 90.5686 128.302C90.8249 128.638 90.884 129.08 90.7394 129.476C91.5213 129.397 92.2177 129.97 92.29 130.749C92.29 130.762 92.29 130.775 92.2965 130.795C92.855 130.894 93.2755 131.362 93.3149 131.936C93.3149 131.87 93.3675 131.817 93.42 131.784C93.7617 131.645 94.1625 131.797 94.3201 132.133C94.4581 132.47 94.5107 132.832 94.4647 133.189L94.4318 134.145C94.4384 134.23 94.4187 134.316 94.3793 134.395C94.3136 134.468 94.2347 134.514 94.1427 134.54C90.5489 135.859 86.8368 137.264 82.9736 137.106C82.0209 137.099 81.0814 136.895 80.2142 136.499C79.0381 135.853 78.0329 134.501 78.8476 133.142Z" fill="#FFE185"/>
<path d="M78.8476 133.142C79.0381 132.793 79.452 132.628 79.8331 132.747C79.9776 132.206 79.6557 131.514 80.0631 131.131C80.3324 130.874 80.7923 130.933 81.088 130.702C81.3836 130.472 81.4165 130.043 81.5807 129.68C81.9355 129.001 82.7699 128.737 83.4532 129.093C83.4598 129.1 83.4729 129.107 83.4795 129.107C83.4335 128.77 83.4269 128.355 83.716 128.17C84.0051 127.985 84.4125 128.17 84.7278 128.051C85.2534 127.814 85.03 126.95 85.3848 126.515C85.4899 126.403 85.6279 126.31 85.7725 126.258C86.9354 125.79 88.2559 126.35 88.7224 127.517C88.7947 127.695 88.8407 127.88 88.867 128.071C89.3991 127.662 90.1613 127.768 90.5686 128.302C90.8249 128.638 90.884 129.08 90.7394 129.476C91.5213 129.397 92.2177 129.97 92.29 130.749C92.29 130.762 92.29 130.775 92.2965 130.795C92.855 130.894 93.2755 131.362 93.3149 131.936C93.3149 131.87 93.3675 131.817 93.42 131.784C93.7617 131.645 94.1625 131.797 94.3201 132.133C94.4581 132.47 94.5107 132.832 94.4647 133.189L94.4318 134.145C94.4384 134.23 94.4187 134.316 94.3793 134.395C94.3136 134.468 94.2347 134.514 94.1427 134.54C90.5489 135.859 86.8368 137.264 82.9736 137.106C82.0209 137.099 81.0814 136.895 80.2142 136.499C79.0381 135.853 78.0329 134.501 78.8476 133.142Z" fill="url(#paint6_linear)"/>
<path d="M78.6045 135.121C78.795 134.771 79.209 134.606 79.5834 134.732C79.7346 134.191 79.4061 133.498 79.8134 133.116C80.0893 132.859 80.5427 132.918 80.8449 132.687C81.1471 132.457 81.1734 132.028 81.3311 131.659C81.6924 130.973 82.5334 130.716 83.2167 131.078C83.2233 131.078 83.2298 131.085 83.2298 131.085C83.1904 130.749 83.1773 130.333 83.4664 130.155C83.7555 129.977 84.1628 130.155 84.4782 130.03C85.0038 129.792 84.7804 128.928 85.1352 128.493C85.2469 128.381 85.3783 128.295 85.5294 128.243C86.6857 127.774 88.0063 128.335 88.4728 129.496C88.545 129.674 88.591 129.865 88.6173 130.056C89.1495 129.647 89.9116 129.753 90.319 130.287C90.5752 130.623 90.6343 131.065 90.4898 131.461C91.2651 131.382 91.9615 131.942 92.0403 132.72C92.0403 132.74 92.0469 132.76 92.0469 132.78C92.6119 132.879 93.0324 133.347 93.0653 133.92C93.0653 133.855 93.1178 133.802 93.177 133.769C93.5186 133.63 93.9128 133.782 94.0705 134.118C94.215 134.448 94.2676 134.811 94.2216 135.167L94.2282 136.11C94.2282 136.196 94.2085 136.281 94.169 136.36C94.1099 136.433 94.0245 136.486 93.9325 136.512C90.3387 137.831 86.6266 139.229 82.7634 139.071C81.8107 139.064 80.8646 138.86 79.9974 138.464C78.7885 137.844 77.803 136.492 78.6045 135.121Z" fill="url(#paint7_linear)"/>
<path d="M78.8936 137.613C79.0842 137.264 79.4915 137.099 79.8726 137.218C80.0237 136.684 79.6952 135.991 80.1025 135.609C80.3785 135.345 80.8318 135.404 81.1275 135.173C81.4231 134.943 81.4625 134.514 81.6202 134.151C81.975 133.472 82.8094 133.208 83.4927 133.564C83.4993 133.571 83.5124 133.578 83.519 133.578C83.473 133.241 83.4664 132.826 83.7555 132.648C84.0446 132.47 84.4519 132.648 84.7673 132.522C85.2929 132.285 85.0695 131.421 85.4243 130.986C85.536 130.874 85.6674 130.788 85.8185 130.735C86.4624 130.478 87.1851 130.531 87.7895 130.874C88.394 131.237 88.7948 131.85 88.8933 132.549C89.4255 132.14 90.1876 132.245 90.595 132.78C90.8512 133.116 90.9103 133.558 90.7658 133.953C91.5411 133.874 92.2375 134.435 92.3163 135.213C92.3163 135.233 92.3229 135.253 92.3229 135.272C92.8879 135.371 93.3084 135.839 93.3413 136.413C93.3478 136.341 93.3873 136.281 93.453 136.255C93.7946 136.123 94.1888 136.275 94.3465 136.611C94.491 136.941 94.5436 137.303 94.4976 137.66L94.4582 138.616C94.4647 138.701 94.445 138.787 94.4056 138.866C94.3465 138.939 94.2611 138.992 94.1691 139.011C90.5753 140.33 86.8632 141.735 82.9999 141.577C82.0473 141.57 81.1012 141.366 80.2339 140.97C79.0776 140.33 78.0789 138.978 78.8936 137.613Z" fill="url(#paint8_linear)"/>
<path d="M125.311 135.543C125.883 135.233 126.382 134.798 126.967 134.501C127.815 134.131 128.728 133.927 129.654 133.894C130.495 133.775 131.349 133.789 132.19 133.927C133.038 134.072 133.787 134.56 134.26 135.279C134.444 135.589 134.555 135.938 134.746 136.262C135.232 137.053 136.172 137.449 136.783 138.154C137.821 139.354 137.689 141.174 136.494 142.216C136.343 142.348 136.172 142.467 135.994 142.566C135.357 142.876 134.667 143.047 133.964 143.08C129.634 143.535 125.265 143.08 120.936 142.678C120.673 142.665 120.41 142.612 120.16 142.526C119.464 142.144 119.024 141.412 119.017 140.614C118.886 139.058 119.536 137.534 120.752 136.558C121.336 136.123 121.98 136.308 122.683 136.242C123.597 136.182 124.49 135.945 125.311 135.543Z" fill="url(#paint9_linear)"/>
<path d="M127.493 136.229H145.816C146.664 136.229 147.347 136.914 147.347 137.765V138.306C147.347 139.156 146.664 139.842 145.816 139.842H127.493C126.645 139.842 125.962 139.156 125.962 138.306V137.765C125.962 136.914 126.652 136.229 127.493 136.229Z" fill="#3E3E54"/>
<path d="M91.1468 158.597C91.1468 158.597 123.472 157.463 126.29 159.019C129.109 160.575 153.536 192.737 153.536 192.737L141.96 193.165L123.327 169.504L91.2848 169.366C91.2848 169.366 77.0277 171.773 75.3392 169.504C73.6507 167.236 73.3682 158.999 73.3682 158.999L91.1468 158.597Z" fill="#FFE185"/>
<path d="M91.1468 158.597C91.1468 158.597 123.472 157.463 126.29 159.019C129.109 160.575 153.536 192.737 153.536 192.737L141.96 193.165L123.327 169.504L91.2848 169.366C91.2848 169.366 77.0277 171.773 75.3392 169.504C73.6507 167.236 73.3682 158.999 73.3682 158.999L91.1468 158.597Z" fill="url(#paint10_linear)"/>
<path d="M74.5179 157.463C74.5179 157.463 111.218 156.612 114.182 160.866C117.145 165.119 131.75 192.809 131.75 192.809L120.318 193.554L108.025 169.86C108.025 169.86 77.8029 173.296 75.3523 169.504C72.9017 165.712 71.8899 158.135 74.5179 157.463Z" fill="#FFE185"/>
<path d="M74.5179 157.463C74.5179 157.463 111.218 156.612 114.182 160.866C117.145 165.119 131.75 192.809 131.75 192.809L120.318 193.554L108.025 169.86C108.025 169.86 77.8029 173.296 75.3523 169.504C72.9017 165.712 71.8899 158.135 74.5179 157.463Z" fill="url(#paint11_linear)"/>
<path d="M120.699 200.861C128.189 200.927 135.672 200.907 143.156 200.808C143.648 198.454 142.42 196.08 140.219 195.13C138.616 194.471 136.789 194.735 135.14 194.24C134.325 193.996 133.57 193.581 132.762 193.33C131.356 192.987 129.897 192.901 128.458 193.073L124.26 193.317C123.419 193.363 121.238 193.079 120.587 193.653C119.444 194.642 120.508 199.496 120.699 200.861Z" fill="#3E3E54"/>
<path d="M158.615 193.205C159.62 193.172 160.626 193.291 161.591 193.561C163.983 194.458 165.343 196.997 164.758 199.496C164.732 199.621 164.673 199.74 164.581 199.832C164.443 199.931 164.272 199.971 164.101 199.951H154.588C150.764 199.951 146.94 199.951 143.123 199.727C142.972 199.727 142.827 199.687 142.696 199.608C142.584 199.509 142.505 199.371 142.466 199.226C141.861 197.432 141.638 195.533 141.809 193.647C141.756 193.284 141.999 192.948 142.361 192.895C142.433 192.882 142.512 192.888 142.584 192.901C147.926 192.743 153.267 193.152 158.615 193.205Z" fill="#3E3E54"/>
<path d="M82.2313 152.556C83.9592 152.556 85.7528 152.596 87.2902 153.368C90.2796 154.865 91.3703 158.571 91.7316 161.901C92.0733 165.93 92.1061 169.972 91.8433 174.008L91.3505 186.155C91.2717 186.689 91.3768 187.237 91.6396 187.705C91.909 188.015 92.2638 188.246 92.658 188.364C96.2453 189.769 100.24 189.327 104.083 189.294C107.342 189.268 110.594 189.558 113.801 190.145C114.622 190.224 115.41 190.541 116.054 191.062C116.869 191.853 116.948 193.119 116.974 194.26C117.013 195.882 116.934 197.768 115.66 198.738C114.891 199.219 114.004 199.47 113.104 199.47C98.0455 200.788 83.289 195.137 68.2238 193.97C60.9047 193.403 53.2112 193.818 46.6411 190.547C45.695 190.132 44.8474 189.512 44.1642 188.734C43.4217 187.685 42.9815 186.445 42.8961 185.16C42.3442 180.603 43.5531 175.927 42.7582 171.423C42.134 167.842 40.2681 164.44 40.4652 160.806C40.6294 158.287 41.7726 155.933 43.6385 154.245C45.6096 152.444 48.1128 153.124 50.6488 153.031C57.3766 152.794 64.1044 152.642 70.8387 152.576C74.6362 152.537 78.4338 152.53 82.2313 152.556Z" fill="#FFE185"/>
<path d="M78.5257 193.501C78.4271 194.82 78.3351 196.265 79.0184 197.405C79.9514 198.975 81.9618 199.436 83.7555 199.76C88.7159 200.643 93.7683 201.534 98.7681 200.94C100.89 200.689 103.104 200.103 104.589 198.559C106.074 197.016 106.501 194.293 104.99 192.769C103.676 191.451 101.626 191.497 99.7865 191.451C97.7235 191.431 95.6605 191.24 93.6303 190.877C92.0798 190.6 90.4044 190.132 89.4977 188.833C88.9327 187.857 88.637 186.755 88.6305 185.628C88.1574 180.194 88.026 174.734 88.2363 169.287C88.4005 164.967 88.8933 159.362 85.2732 156.197C81.653 153.031 78.5125 156.539 78.4074 160.437C78.2694 165.838 79.0644 171.364 79.1104 176.791C79.1367 182.37 78.9462 187.942 78.5257 193.501Z" fill="url(#paint12_linear)"/>
<path d="M204.882 102.491H283.854C288.591 102.491 292.428 106.342 292.428 111.097V158.063C292.428 162.817 288.591 166.669 283.854 166.669H204.882C200.145 166.669 196.308 162.817 196.308 158.063V111.097C196.308 106.342 200.145 102.491 204.882 102.491Z" fill="#3E3E54"/>
<path d="M209.395 102.491H288.368C293.105 102.491 296.942 106.342 296.942 111.097V158.063C296.942 162.817 293.105 166.669 288.368 166.669H209.395C204.658 166.669 200.821 162.817 200.821 158.063V111.097C200.821 106.342 204.658 102.491 209.395 102.491Z" fill="#3E3E54"/>
<path d="M209.395 102.491H288.368C293.105 102.491 296.942 106.342 296.942 111.097V158.063C296.942 162.817 293.105 166.669 288.368 166.669H209.395C204.658 166.669 200.821 162.817 200.821 158.063V111.097C200.821 106.342 204.658 102.491 209.395 102.491Z" fill="url(#paint13_linear)"/>
<path d="M286.922 174.747H186.144V197.696H286.922V174.747Z" fill="#FFE185"/>
<path d="M286.922 174.747H186.144V197.696H286.922V174.747Z" fill="url(#paint14_linear)"/>
<path d="M313.314 174.747H212.536V197.696H313.314V174.747Z" fill="#FFE185"/>
<path d="M253.008 127.464H267.705C271.364 127.464 274.334 130.445 274.334 134.118V174.648H246.378V134.112C246.385 130.439 249.348 127.464 253.008 127.464Z" fill="#3E3E54"/>
<path d="M255.826 127.464H270.523C274.183 127.464 277.153 130.445 277.153 134.118V174.648H249.203V134.112C249.21 130.439 252.173 127.464 255.826 127.464Z" fill="#3E3E54"/>
<path d="M255.826 127.464H270.523C274.183 127.464 277.153 130.445 277.153 134.118V174.648H249.203V134.112C249.21 130.439 252.173 127.464 255.826 127.464Z" fill="url(#paint15_linear)"/>
<path d="M181.059 62.964H138.714V98.6664H181.059V62.964Z" fill="#FFE185"/>
<path d="M178.194 66.0304H141.677V96.121H178.194V66.0304Z" fill="white"/>
<path d="M110.555 34.9177H68.2107V70.6202H110.555V34.9177Z" fill="#FFE185"/>
<path d="M107.69 37.9775H71.1736V68.0681H107.69V37.9775Z" fill="white"/>
<path opacity="0.18" d="M75.832 52.6898C77.3431 51.1269 79.4981 49.7421 81.5677 50.4015C82.8817 50.817 83.7818 51.9315 84.787 52.8613C85.9433 53.9296 87.2771 54.7869 88.7291 55.3936C89.0838 55.5716 89.4846 55.6507 89.8788 55.631C90.273 55.5452 90.6475 55.3738 90.9629 55.1232C93.1179 53.712 95.4765 52.6371 97.9535 51.9381C98.9915 51.6479 100.154 51.4369 101.101 51.9381C101.758 52.3931 102.309 52.98 102.736 53.6526C103.814 55.0243 105.213 56.0992 106.817 56.7784C107.132 56.8707 107.414 57.062 107.618 57.3191C107.736 57.5434 107.789 57.7939 107.776 58.0445L108.314 68.4044C95.4437 69.0045 82.5532 68.9122 69.6889 68.1341C69.5115 68.1341 70.0437 58.7765 70.3459 57.9456C70.7139 56.8443 71.5811 56.6267 72.4747 55.9673C73.6835 54.9649 74.807 53.8702 75.832 52.6898Z" fill="#FFE185"/>
<path d="M156.874 23.2257H124.109V50.8499H156.874V23.2257Z" fill="#FFE185"/>
<path d="M154.66 25.5931H126.402V48.8782H154.66V25.5931Z" fill="white"/>
<path d="M77.9475 143.225L76.6072 134.441H95.9495L92.9864 152.365L79.1498 152.148L77.9475 143.225Z" fill="#FFE185"/>
<path d="M77.9475 143.225L76.6072 134.441H95.9495L92.9864 152.365L79.1498 152.148L77.9475 143.225Z" fill="url(#paint16_linear)"/>
<path d="M79.8594 134.692L82.3954 151.904L84.6227 152.009L83.67 134.58L79.8594 134.692Z" fill="white"/>
<path d="M88.6435 134.692L87.1587 152.009L89.8064 152.365L92.7695 134.441L88.6435 134.692Z" fill="white"/>
<path d="M20.0714 177.602C20.0189 176.521 20.0123 175.314 20.7284 174.509C21.3329 173.956 22.095 173.613 22.9031 173.52C27.8044 172.518 32.8765 172.854 37.607 174.476C38.3626 174.661 39.0524 175.07 39.578 175.65C40.235 176.494 40.1299 177.629 40.0182 178.71C39.486 183.63 38.9342 188.549 38.3757 193.462C38.3363 194.247 38.1326 195.018 37.7778 195.717C35.6557 199.239 24.9136 198.737 22.3184 195.717C18.9545 191.833 20.0714 182.324 20.0714 177.602Z" fill="white"/>
<path d="M19.1321 167.809C16.6552 164.763 14.8747 161.017 14.7761 157.087C17.0165 157.476 19.2175 158.076 21.3462 158.88C23.4815 159.692 25.3474 161.103 26.7205 162.936C28.547 165.574 28.8427 168.95 28.9281 172.168C29.0398 176.072 27.3973 175.248 24.986 173.369C22.8311 171.746 20.8666 169.88 19.1321 167.809Z" fill="#3E3E54"/>
<path d="M25.8071 160.377C25.8071 156.421 26.7401 152.411 29.0922 149.292C30.6099 151.007 31.9567 152.86 33.1262 154.825C34.2826 156.81 34.8541 159.078 34.7687 161.373C34.5454 164.572 32.6597 167.387 30.7216 169.946C28.3629 173.052 27.6008 171.377 26.8978 168.39C26.2342 165.765 25.8663 163.081 25.8071 160.377Z" fill="#3E3E54"/>
<path d="M33.4943 164.374C36.188 161.518 39.6702 159.276 43.5399 158.683C43.4414 160.964 43.126 163.233 42.6004 165.455C42.0682 167.684 40.9119 169.722 39.2694 171.318C36.8976 173.467 33.5994 174.193 30.4392 174.687C26.5957 175.287 27.2001 173.547 28.7507 170.902C30.0778 168.548 31.6744 166.359 33.4943 164.374Z" fill="#3E3E54"/>
<path d="M86.758 102.003C85.6214 102.128 84.4782 102.188 83.335 102.175L77.2511 102.208C76.5612 102.135 75.8648 102.293 75.2801 102.669C74.9778 102.94 74.7413 103.276 74.5836 103.652C73.9792 104.898 73.493 106.085 73.7229 107.463C73.8018 107.905 73.9989 112.211 74.1434 112.225C73.447 112.211 72.7703 112.014 72.1724 111.651C72.133 111.625 72.1001 111.598 72.0673 111.565C71.9622 108.974 72.4024 106.29 73.8675 104.133C75.7203 101.41 79.0381 99.9325 82.3166 99.8204C83.3284 99.7215 84.3468 99.9391 85.2272 100.44C85.7988 100.902 86.3112 101.423 86.758 102.003Z" fill="url(#paint17_linear)"/>
<path d="M72.5861 120.646C71.7714 120.521 67.087 121.905 66.2723 122.011C65.2145 122.189 64.2158 122.618 63.3486 123.251C59.9321 125.578 57.5669 129.12 55.4185 132.654C54.1439 134.758 52.9087 136.895 51.7327 139.058C50.6158 141.102 49.5185 143.271 49.5251 145.606C49.512 146.43 49.6828 147.248 50.031 148C50.8129 149.404 52.1269 150.426 53.6774 150.835C55.2148 151.224 56.7982 151.409 58.3816 151.376L69.0646 151.62C71.8897 151.778 74.728 151.66 77.5268 151.257C78.2496 151.218 78.9131 150.868 79.3599 150.295C79.5701 149.833 79.6424 149.319 79.5701 148.817L79.3927 145.421C79.4125 144.96 79.3008 144.505 79.0708 144.102C78.6503 143.496 77.8159 143.384 77.0998 143.351C72.757 143.133 68.3878 143.7 64.0713 143.219C63.907 143.219 63.7494 143.159 63.6311 143.041C63.5654 142.922 63.5457 142.777 63.572 142.645C63.7428 140.957 65.0634 139.651 66.1606 138.352C68.4995 135.576 70.0566 132.226 70.6874 128.645C70.7596 127.893 70.983 127.161 71.3444 126.502C71.8306 125.921 72.3693 125.381 72.9541 124.893C75.2602 122.354 73.9987 120.857 72.5861 120.646Z" fill="white"/>
<path d="M73.8609 144.755C73.0396 144.887 72.3038 145.349 71.8241 146.028C71.6402 146.443 71.5482 146.892 71.5482 147.347C71.5482 147.848 71.5022 148.356 71.5088 148.857C71.4891 149.365 71.6205 149.859 71.8898 150.288C72.3366 150.75 72.941 151.02 73.5783 151.053C75.2077 151.284 76.8503 151.396 78.4993 151.402C79.0644 151.488 79.636 151.317 80.063 150.934C80.2667 150.618 80.3652 150.255 80.3587 149.879C80.5492 148.197 80.5952 146.503 80.4966 144.815C80.4178 144.116 79.682 144.208 79.1038 144.155C78.2825 144.089 77.4613 144.109 76.64 144.195C75.7005 144.3 74.7741 144.491 73.8609 144.755Z" fill="url(#paint18_linear)"/>
<path d="M79.8331 124.569C79.8528 125.236 79.7345 125.895 79.4848 126.515C78.9987 127.405 78.0854 127.979 77.0736 128.032C75.7202 128.071 74.4193 127.471 73.5783 126.403C72.7571 125.341 72.2577 124.062 72.1263 122.723C72.0015 121.384 72.0015 120.046 72.1263 118.707C72.1395 118.397 72.1855 118.087 72.2577 117.784C72.3957 117.375 72.6191 116.999 72.9148 116.683C73.3155 116.162 73.8806 115.779 74.5113 115.601C75.0238 115.502 75.5559 115.542 76.0553 115.713C77.2707 116.089 78.3088 116.88 79.0052 117.949C80.2207 119.841 79.925 122.393 79.8331 124.569Z" fill="url(#paint19_linear)"/>
<path d="M74.7544 121.628C75.1027 122.512 75.6348 123.303 76.3181 123.963C77.008 124.622 77.9409 124.959 78.887 124.906C79.1301 124.912 79.3666 124.82 79.544 124.655C79.7017 124.438 79.7805 124.174 79.774 123.91L80.0105 121.312C80.0893 120.784 80.0696 120.25 79.9711 119.729C79.8134 119.202 79.544 118.72 79.1761 118.311C78.2103 117.151 75.8911 115.39 74.2617 116.333C72.8754 117.21 74.288 120.553 74.7544 121.628Z" fill="url(#paint20_linear)"/>
<path d="M88.256 113.016C88.1049 115.245 87.7304 117.632 86.285 119.287C85.2666 120.369 83.9921 121.167 82.5795 121.615C81.5808 122.024 80.5033 122.202 79.4258 122.136C77.9344 121.905 76.581 121.114 75.6546 119.92C75.0961 119.235 74.6231 118.476 74.2617 117.665C74.0055 117.111 73.7756 116.537 73.6047 115.964C72.5995 115.898 71.6666 115.423 71.0293 114.645C70.6088 114.229 70.2934 113.722 70.1226 113.154C69.9583 112.574 70.1226 111.954 70.5431 111.532C70.9701 111.137 71.6337 111.137 72.0608 111.532L72.1068 111.585C72.1396 111.618 72.1725 111.644 72.2119 111.671C72.8098 112.033 73.4865 112.231 74.1829 112.244C74.0384 112.244 73.8413 107.925 73.7624 107.483C73.5325 106.105 74.0187 104.918 74.6231 103.672C74.7808 103.296 75.0173 102.959 75.3195 102.689C75.9043 102.313 76.6007 102.155 77.2906 102.227L83.3745 102.194C84.5177 102.208 85.6609 102.148 86.7975 102.023C86.9223 102.168 87.0603 102.307 87.2048 102.432C87.6713 102.847 87.8158 102.854 87.9801 103.454C88.1049 104.107 88.1838 104.766 88.2035 105.432C88.4334 107.951 88.4466 110.49 88.256 113.016Z" fill="url(#paint21_linear)"/>
<path d="M90.3256 100.829C89.2415 101.489 88.0195 101.904 86.758 102.036C85.6214 102.161 84.4782 102.221 83.335 102.208L77.2511 102.241C76.5612 102.168 75.8648 102.326 75.2801 102.702C74.9778 102.973 74.7413 103.309 74.5836 103.685C73.9792 104.931 73.493 106.118 73.7229 107.496C73.8018 107.938 73.9989 112.244 74.1434 112.258C73.447 112.244 72.7703 112.047 72.1724 111.684C72.133 111.658 72.1001 111.631 72.0673 111.598C72.0476 111.592 72.0344 111.578 72.0213 111.565C71.5942 111.17 70.9306 111.17 70.5036 111.565C70.0831 111.987 69.9189 112.607 70.0831 113.187C70.2539 113.755 70.5693 114.262 70.9898 114.678C71.6271 115.456 72.56 115.931 73.5653 115.997C73.7689 116.57 73.9989 117.144 74.2223 117.698C72.9082 117.85 71.6008 117.395 70.6678 116.458C69.7415 115.509 69.0319 114.374 68.5917 113.122C67.5471 110.471 67.0543 107.635 67.1266 104.786C67.1134 103.823 67.2645 102.867 67.5668 101.957C67.8756 101.04 68.4997 100.262 69.3341 99.7743C69.5246 99.6886 69.7086 99.5765 69.8663 99.438C70.116 99.0687 70.2474 98.6269 70.2474 98.1784C70.5562 97.0244 71.3249 96.0484 72.3826 95.4879C75.5363 93.5096 79.4981 93.5953 83.2167 93.6151C86.147 93.6151 89.0707 93.5491 91.9944 93.4172C92.3623 93.4172 92.7959 93.4172 92.9799 93.7338C93.0324 93.8195 93.0653 93.9184 93.0784 94.0173C93.6435 96.6353 92.5462 99.3391 90.3256 100.829Z" fill="#3E3E54"/>
<path opacity="0.18" d="M134.963 33.7901C137.098 33.7901 138.819 35.4387 140.528 36.7246C142.236 38.0105 144.654 39.0129 146.441 37.8127C147.374 37.1533 147.879 36.0652 148.766 35.3662C149.805 34.6737 151.053 34.3704 152.288 34.5221C153.28 34.5814 154.371 34.832 154.916 35.6431C155.461 36.4543 155.389 37.4236 155.304 38.3535C155.12 40.3714 154.883 42.5146 153.622 44.0972C151.933 46.2207 148.95 46.6955 146.257 46.9065C142.446 47.2098 138.412 47.256 135.055 45.4227C134.187 44.8622 133.281 44.361 132.335 43.939C131.369 43.5169 130.259 43.6027 129.372 44.1764C128.747 44.6578 128.314 45.4953 127.532 45.581C124.904 45.8118 126.514 39.9032 127.295 38.6436C128.655 36.507 132.42 33.7571 134.963 33.7901Z" fill="#FFE185"/>
<path opacity="0.18" d="M153.911 75.3155C156.046 75.3155 157.761 76.9707 159.476 78.25C161.191 79.5293 163.602 80.5383 165.389 79.3381C166.322 78.6787 166.828 77.5906 167.721 76.8982C168.759 76.2057 170.008 75.9024 171.243 76.0475C172.235 76.1068 173.326 76.3574 173.904 77.1685C174.482 77.9796 174.377 78.949 174.291 79.8789C174.101 81.8968 173.864 84.0466 172.603 85.6292C170.914 87.7461 167.938 88.2209 165.238 88.4385C161.434 88.7418 157.4 88.7814 154.069 86.9481C153.195 86.3876 152.288 85.893 151.342 85.4644C150.376 85.0423 149.266 85.1281 148.379 85.7018C147.722 86.1832 147.321 87.0207 146.539 87.1064C143.911 87.3438 145.521 81.4286 146.303 80.169C147.577 78.0324 151.349 75.2825 153.911 75.3155Z" fill="#FFE185"/>
<defs>
<linearGradient id="paint0_linear" x1="174.842" y1="224.975" x2="176.84" y2="141.977" gradientUnits="userSpaceOnUse">
<stop stop-opacity="0"/>
<stop offset="0.99"/>
</linearGradient>
<linearGradient id="paint1_linear" x1="110.405" y1="104.742" x2="247.071" y2="109.678" gradientUnits="userSpaceOnUse">
<stop offset="0.02" stop-color="white" stop-opacity="0"/>
<stop offset="0.58" stop-color="white" stop-opacity="0.39"/>
<stop offset="0.68" stop-color="white" stop-opacity="0.68"/>
<stop offset="1" stop-color="white"/>
</linearGradient>
<linearGradient id="paint2_linear" x1="117.676" y1="131.368" x2="51.3245" y2="149.215" gradientUnits="userSpaceOnUse">
<stop stop-opacity="0"/>
<stop offset="0.99"/>
</linearGradient>
<linearGradient id="paint3_linear" x1="133.91" y1="168.592" x2="81.5693" y2="179.776" gradientUnits="userSpaceOnUse">
<stop stop-opacity="0"/>
<stop offset="0.99"/>
</linearGradient>
<linearGradient id="paint4_linear" x1="17.7726" y1="110.89" x2="88.9866" y2="163.124" gradientUnits="userSpaceOnUse">
<stop stop-opacity="0"/>
<stop offset="0.99"/>
</linearGradient>
<linearGradient id="paint5_linear" x1="91.5843" y1="135.339" x2="23.7428" y2="182.32" gradientUnits="userSpaceOnUse">
<stop stop-opacity="0"/>
<stop offset="0.99"/>
</linearGradient>
<linearGradient id="paint6_linear" x1="83.6382" y1="139.527" x2="90.7821" y2="125.793" gradientUnits="userSpaceOnUse">
<stop offset="0.02" stop-color="white" stop-opacity="0"/>
<stop offset="0.58" stop-color="white" stop-opacity="0.39"/>
<stop offset="0.68" stop-color="white" stop-opacity="0.68"/>
<stop offset="1" stop-color="white"/>
</linearGradient>
<linearGradient id="paint7_linear" x1="83.4044" y1="141.517" x2="90.5416" y2="127.789" gradientUnits="userSpaceOnUse">
<stop offset="0.02" stop-color="white" stop-opacity="0"/>
<stop offset="0.58" stop-color="white" stop-opacity="0.39"/>
<stop offset="0.68" stop-color="white" stop-opacity="0.68"/>
<stop offset="1" stop-color="white"/>
</linearGradient>
<linearGradient id="paint8_linear" x1="83.6776" y1="143.995" x2="90.8149" y2="130.267" gradientUnits="userSpaceOnUse">
<stop offset="0.02" stop-color="white" stop-opacity="0"/>
<stop offset="0.58" stop-color="white" stop-opacity="0.39"/>
<stop offset="0.68" stop-color="white" stop-opacity="0.68"/>
<stop offset="1" stop-color="white"/>
</linearGradient>
<linearGradient id="paint9_linear" x1="119.002" y1="138.54" x2="137.484" y2="138.54" gradientUnits="userSpaceOnUse">
<stop stop-color="#E5C5D5"/>
<stop offset="0.42" stop-color="#EAD4D1"/>
<stop offset="1" stop-color="#F0E9CB"/>
</linearGradient>
<linearGradient id="paint10_linear" x1="137.836" y1="157.626" x2="115.333" y2="174.336" gradientUnits="userSpaceOnUse">
<stop stop-opacity="0"/>
<stop offset="0.99"/>
</linearGradient>
<linearGradient id="paint11_linear" x1="136.613" y1="156.458" x2="92.5238" y2="180.837" gradientUnits="userSpaceOnUse">
<stop stop-opacity="0"/>
<stop offset="0.99"/>
</linearGradient>
<linearGradient id="paint12_linear" x1="92.728" y1="221.796" x2="89.7362" y2="72.3662" gradientUnits="userSpaceOnUse">
<stop stop-opacity="0"/>
<stop offset="0.99"/>
</linearGradient>
<linearGradient id="paint13_linear" x1="248.539" y1="100.234" x2="249.201" y2="165.836" gradientUnits="userSpaceOnUse">
<stop stop-opacity="0"/>
<stop offset="0.99"/>
</linearGradient>
<linearGradient id="paint14_linear" x1="166.343" y1="186.219" x2="267.122" y2="186.219" gradientUnits="userSpaceOnUse">
<stop stop-opacity="0"/>
<stop offset="0.99"/>
</linearGradient>
<linearGradient id="paint15_linear" x1="263.373" y1="112.21" x2="263.042" y2="183.615" gradientUnits="userSpaceOnUse">
<stop stop-opacity="0"/>
<stop offset="0.99"/>
</linearGradient>
<linearGradient id="paint16_linear" x1="88.5939" y1="133.088" x2="80.2879" y2="155.489" gradientUnits="userSpaceOnUse">
<stop stop-opacity="0"/>
<stop offset="0.99"/>
</linearGradient>
<linearGradient id="paint17_linear" x1="72.0539" y1="106.009" x2="86.7594" y2="106.009" gradientUnits="userSpaceOnUse">
<stop stop-color="#E5C5D5"/>
<stop offset="0.42" stop-color="#EAD4D1"/>
<stop offset="1" stop-color="#F0E9CB"/>
</linearGradient>
<linearGradient id="paint18_linear" x1="71.5233" y1="147.769" x2="80.5506" y2="147.769" gradientUnits="userSpaceOnUse">
<stop stop-color="#E5C5D5"/>
<stop offset="0.42" stop-color="#EAD4D1"/>
<stop offset="1" stop-color="#F0E9CB"/>
</linearGradient>
<linearGradient id="paint19_linear" x1="81.3712" y1="117.01" x2="72.7095" y2="124.767" gradientUnits="userSpaceOnUse">
<stop stop-color="#E5C5D5"/>
<stop offset="0.42" stop-color="#EAD4D1"/>
<stop offset="1" stop-color="#F0E9CB"/>
</linearGradient>
<linearGradient id="paint20_linear" x1="77.6587" y1="120.449" x2="56.6405" y2="121.712" gradientUnits="userSpaceOnUse">
<stop stop-color="#E5C5D5"/>
<stop offset="0.42" stop-color="#EAD4D1"/>
<stop offset="1" stop-color="#F0E9CB"/>
</linearGradient>
<linearGradient id="paint21_linear" x1="79.3272" y1="100.808" x2="79.1617" y2="117.597" gradientUnits="userSpaceOnUse">
<stop stop-color="#E5C5D5"/>
<stop offset="0.42" stop-color="#EAD4D1"/>
<stop offset="1" stop-color="#F0E9CB"/>
</linearGradient>
</defs>
</svg>
